# xmcd
#
# Track frame offsets:
#	150
#	12957
#	28746
#	49033
#	65738
#	82177
#	96134
#	114325
#	133152
#	148721
#	165011
#	181765
#	196768
#	210850
#	230461
#	245229
#	261163
#	277502
#	292276
#	307175
#	319639
#	332781
#
# Disc length: 4730 seconds
#
# Revision: 0
# Processed by: cddbd v1.5.1PL2 Copyright (c) Steve Scherf et al.
# Submitted via: EasyCDDAExtractor 9.0.0.1
#
DISCID=3c127816
DTITLE=Olivia Newton-John - Definitive Collection
DYEAR=2002
DGENRE=Blues
TTITLE0=You're The One That I Want
TTITLE1=Xanadu
TTITLE2=Magic
TTITLE3=Sam
TTITLE4=I Honestly Love You
TTITLE5=Hopelessly Devoted To You
TTITLE6=Suddenly
TTITLE7=I Need Love
TTITLE8=A Little More Love
TTITLE9=Summer Nights
TTITLE10=Physical
TTITLE11=What Is Life
TTITLE12=Heart Attack
TTITLE13=Landslide
TTITLE14=Make A Move On Me
TTITLE15=Have You Never Been Mellow
TTITLE16=Deeper Than The Night
TTITLE17=Banks Of The Ohio
TTITLE18=Take Me Home Country Roads
TTITLE19=Long Live Love
TTITLE20=If Not For You
TTITLE21=The Grease Megamix (Bonus Track)
EXTD=
EXTT0=
EXTT1=
EXTT2=
EXTT3=
EXTT4=
EXTT5=
EXTT6=
EXTT7=
EXTT8=
EXTT9=
EXTT10=
EXTT11=
EXTT12=
EXTT13=
EXTT14=
EXTT15=
EXTT16=
EXTT17=
EXTT18=
EXTT19=
EXTT20=
EXTT21=
PLAYORDER=
